<?xml version="1.0" standalone="no"?>
<!DOCTYPE svg PUBLIC "-//W3C//DTD SVG 20010904//EN"
 "http://www.w3.org/TR/2001/REC-SVG-20010904/DTD/svg10.dtd">
<svg version="1.0" xmlns="http://www.w3.org/2000/svg"
 width="56" height="48" viewBox="0 0 350.000000 350.000000"
 preserveAspectRatio="xMidYMid meet">

<g transform="translate(0.000000,350.000000) scale(0.100000,-0.100000)"
fill="#2F2F2F" stroke="none">
<path d="M1590 2689 c-126 -22 -269 -118 -339 -228 -34 -53 -71 -157 -71 -199
0 -22 -10 -35 -44 -60 -59 -41 -94 -95 -109 -170 -12 -61 -14 -62 -64 -88 -65
-32 -127 -93 -161 -159 -23 -44 -27 -62 -27 -145 0 -116 21 -165 102 -245 57
-57 179 -123 268 -145 28 -7 53 -16 57 -19 4 -4 1 -28 -7 -55 -21 -68 -19
-112 5 -136 26 -26 81 -26 105 0 18 20 18 70 -1 154 -6 25 -4 28 10 23 9 -4
53 -10 97 -13 l81 -7 -7 -36 c-18 -101 -18 -118 4 -140 27 -27 65 -27 91 1 24
26 24 36 5 108 -8 30 -15 56 -15 58 0 1 34 2 75 2 42 0 75 -4 75 -10 0 -5 11
-17 24 -25 29 -19 71 -6 81 24 5 17 15 21 53 21 48 1 174 15 224 26 26 5 27 4
22 -24 -9 -42 10 -72 46 -72 39 0 54 28 41 76 -7 26 -7 36 2 39 269 77 415
189 477 369 109 318 -98 659 -402 659 l-77 0 -7 31 c-10 50 -61 151 -104 205
-115 146 -312 215 -510 180z m225 -44 c180 -47 300 -165 360 -355 l17 -55 87
-1 c54 0 103 -7 131 -18 111 -41 209 -140 247 -249 14 -39 18 -82 18 -177 0
-121 -1 -128 -33 -192 -77 -157 -248 -253 -542 -304 -149 -25 -542 -31 -710
-9 -365 46 -545 167 -544 365 1 123 81 237 195 277 48 17 49 19 49 58 0 22 5
57 11 79 12 44 81 124 115 132 18 5 25 15 29 43 21 138 63 229 137 296 116
105 286 148 433 110z m-515 -1550 c0 -5 -5 -3 -10 5 -5 8 -10 20 -10 25 0 6 5
3 10 -5 5 -8 10 -19 10 -25z"/>
<path d="M1925 1779 c-9 -13 21 -65 51 -88 45 -35 96 -25 128 24 22 33 12 50
-17 30 -37 -26 -94 -19 -128 14 -16 16 -31 25 -34 20z"/>
<path d="M1497 1755 c-32 -29 -92 -34 -123 -10 -44 33 -48 -3 -5 -46 50 -49
119 -31 156 41 25 49 16 53 -28 15z"/>
<path d="M1664 1611 c-51 -31 -84 -91 -51 -91 8 0 22 9 32 20 43 48 131 49
185 3 35 -29 48 -24 34 14 -23 66 -133 95 -200 54z"/>
<path d="M2307 1149 c-29 -90 -19 -139 28 -139 30 0 45 19 44 55 -1 38 -32
128 -46 132 -5 2 -17 -20 -26 -48z"/>
<path d="M1976 1141 c-18 -28 -46 -128 -46 -161 0 -60 42 -86 88 -54 28 19 28
47 1 138 -22 76 -33 94 -43 77z"/>
</g>
</svg>
